# xmcd
#
# Track frame offsets:
#	150
#	18869
#	39017
#	61387
#	78380
#	97584
#	115964
#	132666
#	158183
#	176371
#	206368
#	221156
#
# Disc length: 3382 seconds
# Revision: 0
# Processed by: cddbd v1.5.2PL0 Copyright (c) Steve Scherf et al.
# Submitted via: dBpowerAMP V12.0
#
DISCID=940d340c
DTITLE=Amanda Fish Band - Down In The Dirt
DYEAR=2015
DGENRE=Blues Rock Female
TTITLE0=I'mma Make You Love Me
TTITLE1=Player Blues
TTITLE2=Wait
TTITLE3=Guess I'll Lay Down
TTITLE4=Prisoner Of Your Touch
TTITLE5=Boots On The Ground
TTITLE6=I Don't Need It
TTITLE7=Hard Walkin' Blues
TTITLE8=Lady Of The Night
TTITLE9=Breaking Me Down
TTITLE10=Watch It All Burn
TTITLE11=Down In The Dirt
EXTD=
EXTT0=
EXTT1=
EXTT2=
EXTT3=
EXTT4=
EXTT5=
EXTT6=
EXTT7=
EXTT8=
EXTT9=
EXTT10=
EXTT11=
PLAYORDER=
